<svg width="591" height="483" viewBox="0 0 591 483" fill="none" xmlns="http://www.w3.org/2000/svg">
<g opacity="0.91">
<path d="M426.718 470.673C416.568 476.76 398.486 484.387 380.007 476.549L368.062 471.482L391.999 444.649C372.897 423.588 362.33 396.164 362.359 367.731C362.388 339.298 373.012 311.896 392.156 290.874C411.301 269.852 437.592 256.718 465.899 254.037C494.205 251.356 522.495 259.319 545.246 276.372C567.997 293.426 583.577 318.346 588.944 346.268C594.312 374.19 589.081 403.11 574.274 427.383C559.467 451.656 536.145 469.54 508.862 477.545C481.579 485.549 452.292 483.099 426.718 470.673V470.673ZM380.854 367.667C380.802 380.774 383.462 393.75 388.667 405.779C393.873 417.808 401.511 428.63 411.102 437.564L417.705 443.769L402.642 460.654C410.488 459.062 417.321 454.817 420.786 452.352L425.541 448.969L430.654 451.779C444.789 459.518 460.645 463.573 476.759 463.572C529.642 463.572 572.664 420.549 572.664 367.667C572.664 314.785 529.642 271.762 476.759 271.762C423.877 271.762 380.854 314.785 380.854 367.667V367.667Z" fill="#3F3D56"/>
<g filter="url(#filter0_ii_2_1843)">
<path d="M371.555 367.666C371.555 309.564 418.656 262.463 476.759 262.463C534.861 262.463 581.962 309.564 581.962 367.666C581.962 425.768 534.861 472.869 476.758 472.869C459.075 472.895 441.674 468.443 426.176 459.928C418.904 465.102 401.163 475.423 383.637 467.988L404.733 444.34C394.246 434.514 385.89 422.638 380.182 409.448C374.475 396.259 371.539 382.037 371.555 367.666Z" fill="#00D1FF"/>
</g>
<path d="M431.606 413.181C431.739 412.972 431.394 412.515 430.834 412.16C430.275 411.806 429.714 411.689 429.581 411.899C429.448 412.109 429.794 412.566 430.353 412.92C430.913 413.274 431.474 413.391 431.606 413.181Z" fill="#545271"/>
<path d="M429.647 409.279C429.945 408.809 430.417 408.477 430.959 408.355C431.502 408.233 432.071 408.332 432.541 408.629L459.121 425.461C459.591 425.759 459.924 426.231 460.046 426.774C460.168 427.316 460.069 427.885 459.771 428.355L429.647 409.279Z" fill="#545271"/>
<path d="M427.13 410.17L427.967 408.849C428.17 408.528 428.493 408.301 428.863 408.218C429.234 408.134 429.623 408.202 429.944 408.405L460.208 427.57C460.397 427.689 460.56 427.844 460.688 428.026C460.816 428.209 460.907 428.414 460.956 428.632C461.005 428.85 461.011 429.074 460.973 429.294C460.934 429.514 460.853 429.724 460.734 429.912L460.039 431.009L427.13 410.17Z" fill="#D0CDE1"/>
<path d="M431.634 410.895L431.313 411.401L433.338 412.684L433.659 412.177L431.634 410.895Z" fill="#D0CDE1"/>
<path d="M434.422 412.658L434.102 413.165L436.127 414.447L436.447 413.941L434.422 412.658Z" fill="#D0CDE1"/>
<path d="M474.535 351.153C484.969 351.153 493.427 342.694 493.427 332.26C493.427 321.826 484.969 313.368 474.535 313.368C464.101 313.368 455.642 321.826 455.642 332.26C455.642 342.694 464.101 351.153 474.535 351.153Z" fill="#FFB8B8"/>
<path d="M475.686 345.624C475.686 345.624 484.902 360.138 482.598 364.286C480.294 368.433 473.151 379.722 473.151 379.722C473.151 379.722 504.946 356.222 500.799 351.153C500.799 351.153 491.353 343.089 490.892 338.021L475.686 345.624Z" fill="#FFB8B8"/>
<path d="M500.883 470.156C487.82 473.422 468.77 474.239 454.992 470.596L456.444 431.815L456.553 428.799L456.593 427.819L456.643 426.377L456.68 425.456C456.68 425.456 456.738 425.451 456.852 425.447C457.16 425.424 457.872 425.374 458.893 425.315C460.077 425.247 461.669 425.161 463.524 425.084C463.964 425.066 464.418 425.048 464.885 425.025C474.655 424.662 489.913 424.585 491.932 427.529L492.186 429.262L492.594 432.06L493.429 437.78C493.429 437.78 504.149 451.65 500.883 470.156Z" fill="white"/>
<path d="M518.54 374.653L502.219 410.763L495.132 426.439L492.505 432.252L454.49 431.791L458.406 405.296C452.877 391.011 466.01 385.251 466.01 385.251L477.069 373.466V375.344C477.069 375.344 487.897 362.442 492.735 355.069C497.574 347.697 504.255 350.461 504.255 350.461C515.775 349.309 518.54 374.653 518.54 374.653Z" fill="white"/>
<path opacity="0.2" d="M502.217 410.764L495.13 426.44C492.854 422.182 491.121 417.36 491.121 414.512C491.121 406.679 498.955 410.826 498.955 410.826C498.955 410.826 492.619 376.151 492.619 365.783C492.619 358.897 498.36 389.459 502.217 410.764Z" fill="black"/>
<path d="M495.962 413.36L461.633 412.669C461.633 412.669 436.52 414.742 440.206 424.88C443.893 435.017 463.937 424.88 463.937 424.88L504.026 431.1L495.962 413.36Z" fill="#FFB8B8"/>
<path d="M502.41 352.305C502.41 352.305 490.43 353.226 490.43 363.594C490.43 373.962 501.258 410.825 501.258 410.825C501.258 410.825 493.425 406.678 493.425 414.511C493.425 422.345 506.557 445.154 507.94 429.948C507.94 429.948 527.754 439.625 526.602 421.423C525.45 403.222 513.008 364.746 513.008 364.746C513.008 364.746 511.626 351.613 502.41 352.305Z" fill="white"/>
<path d="M475.161 330.205C473.838 328.925 473.862 326.766 472.796 325.265C471.122 322.908 467.636 323.066 464.773 323.473C462.871 323.743 460.94 324.022 459.175 324.774C458.384 325.099 457.681 325.603 457.119 326.247C456.556 326.89 456.152 327.656 455.936 328.482C455.712 329.411 455.217 326.777 454.714 323.365C454.199 319.883 454.802 316.328 456.437 313.212C458.071 310.095 460.653 307.578 463.81 306.023C463.848 306.004 463.885 305.986 463.922 305.968C467.159 304.395 470.551 303.005 474.13 302.615C477.708 302.224 481.526 302.931 484.333 305.185C485.615 306.216 486.659 307.538 488.034 308.441C490.45 310.028 493.51 310.105 496.381 310.439C499.628 310.817 502.883 311.612 505.686 313.294C508.489 314.975 510.811 317.629 511.591 320.804C512.5 324.507 511.016 328.885 507.375 330.492C506.739 330.759 506.175 331.173 505.729 331.699C502.74 335.354 507.566 337.354 508.266 340.536C508.85 343.19 506.297 345.594 503.679 346.325C498.803 347.686 493.128 344.975 491.123 340.326C490.225 338.243 490.021 335.94 489.776 333.685C489.497 331.104 482.727 326.429 487.297 329.946C488.184 330.61 488.883 331.493 489.324 332.51C490.714 335.838 487.829 337.727 486.282 340.103C485.439 341.439 484.988 342.985 484.98 344.564C484.971 346.144 485.406 347.695 486.234 349.04C482.223 346.944 480.194 341.691 481.755 337.443C482.17 336.313 482.799 335.269 483.176 334.127C483.764 332.344 483.244 328.88 480.613 329.583C478.735 330.084 477.13 332.111 475.161 330.205Z" fill="#2B2B3D"/>
<path d="M381.154 190.585C372.246 195.927 356.375 202.621 340.157 195.742L329.673 191.295L350.682 167.744C333.917 149.259 324.642 125.19 324.668 100.234C324.693 75.2793 334.017 51.2291 350.82 32.7784C367.623 14.3277 390.698 2.80067 415.543 0.44735C440.387 -1.90597 465.216 5.0833 485.184 20.0509C505.153 35.0185 518.827 56.8902 523.538 81.3968C528.248 105.903 523.658 131.286 510.662 152.59C497.665 173.894 477.197 189.591 453.251 196.616C429.305 203.641 403.6 201.491 381.154 190.585V190.585ZM340.901 100.178C340.854 111.682 343.189 123.071 347.758 133.629C352.327 144.187 359.031 153.685 367.448 161.526L373.243 166.972L360.023 181.791C366.909 180.394 372.907 176.669 375.948 174.505L380.121 171.536L384.609 174.002C397.015 180.794 410.931 184.354 425.075 184.352C471.488 184.352 509.249 146.592 509.249 100.178C509.249 53.7646 471.488 16.0042 425.075 16.0042C378.661 16.0042 340.901 53.7646 340.901 100.178V100.178Z" fill="#3F3D56"/>
<g filter="url(#filter1_ii_2_1843)">
<path d="M332.738 100.178C332.738 49.1832 374.078 7.84347 425.073 7.84347C476.068 7.84347 517.408 49.1832 517.408 100.178C517.408 151.174 476.068 192.513 425.073 192.513C409.553 192.536 394.28 188.629 380.678 181.155C374.295 185.696 358.724 194.754 343.342 188.23L361.858 167.473C352.654 158.849 345.319 148.426 340.31 136.85C335.301 125.274 332.724 112.792 332.738 100.178Z" fill="url(#paint0_linear_2_1843)"/>
<path d="M332.738 100.178C332.738 49.1832 374.078 7.84347 425.073 7.84347C476.068 7.84347 517.408 49.1832 517.408 100.178C517.408 151.174 476.068 192.513 425.073 192.513C409.553 192.536 394.28 188.629 380.678 181.155C374.295 185.696 358.724 194.754 343.342 188.23L361.858 167.473C352.654 158.849 345.319 148.426 340.31 136.85C335.301 125.274 332.724 112.792 332.738 100.178Z" fill="black" fill-opacity="0.2"/>
</g>
<path opacity="0.1" d="M501.68 100.378C501.68 52.1337 464.678 12.5384 417.506 8.40631C420.196 8.17072 422.917 8.04325 425.667 8.04325C476.662 8.04325 518.002 49.383 518.002 100.378C518.002 151.373 476.662 192.713 425.667 192.713C422.921 192.713 420.205 192.584 417.519 192.349C464.685 188.211 501.68 148.618 501.68 100.378Z" fill="black"/>
<path d="M446.751 70.8435C440.709 60.6355 428.757 60.1598 428.757 60.1598C428.757 60.1598 417.11 58.6704 409.639 74.2173C402.675 88.7082 393.064 102.7 408.092 106.092L410.806 97.6432L412.487 106.721C414.627 106.875 416.773 106.911 418.917 106.831C435.01 106.311 450.337 106.983 449.843 101.208C449.187 93.5306 452.564 80.6656 446.751 70.8435Z" fill="#2F2E41"/>
<path d="M407.234 160.239C407.057 161.362 406.799 162.471 406.463 163.557C406.085 164.62 405.502 165.603 405.156 166.677C404.054 170.101 405.582 173.918 408.021 176.56C410.137 178.842 412.867 180.464 415.884 181.229C418.105 181.704 420.37 181.942 422.641 181.939C428.921 182.152 435.363 182.343 441.314 180.324C443.194 179.671 445.01 178.846 446.739 177.86C447.285 177.6 447.766 177.221 448.147 176.751C448.546 176.063 448.723 175.27 448.655 174.477C448.642 171.815 448.102 169.166 448.23 166.507C448.301 165.034 448.577 163.562 448.441 162.094C448.253 160.426 447.554 158.857 446.441 157.602C445.327 156.346 443.852 155.466 442.219 155.081C440.531 154.718 438.78 154.916 437.061 155.081C432.6 155.509 428.119 155.71 423.638 155.681C419.058 155.652 414.507 154.953 409.951 154.88C408.604 154.858 408.631 155.274 408.202 156.578C407.807 157.778 407.483 159.001 407.234 160.239Z" fill="#2F2E41"/>
<path d="M420.229 94.4989C420.008 95.6512 419.771 96.8455 419.078 97.7924C418.282 98.8819 416.983 99.5044 416.126 100.547C414.836 102.116 414.761 104.325 414.756 106.356C414.751 108.228 414.789 110.224 415.833 111.777C416.576 112.742 417.498 113.555 418.548 114.171C422.462 116.809 426.691 119.493 431.41 119.58C433.365 119.616 435.461 119.112 436.748 117.639C437.303 116.947 437.74 116.168 438.04 115.333C439.247 112.359 439.978 109.213 440.208 106.012C440.382 104.507 440.241 102.982 439.795 101.534C439.222 99.9357 438.063 98.6207 437.297 97.1053C436.391 95.3034 436.06 93.2671 436.348 91.2711C436.386 91.1305 436.374 90.9811 436.315 90.8482C436.252 90.7771 436.173 90.7216 436.085 90.6859C435.997 90.6502 435.902 90.6354 435.807 90.6426L426.45 89.969C425.579 89.9257 424.711 89.8264 423.853 89.6718C423.348 89.5692 422.016 88.8529 421.535 89.0434C420.645 89.396 420.411 93.5434 420.229 94.4989Z" fill="#DB997D"/>
<path opacity="0.1" d="M420.229 94.7913C420.008 95.9435 419.771 97.1379 419.078 98.0848C418.282 99.1742 416.983 99.7967 416.126 100.839C414.836 102.409 414.761 104.617 414.756 106.648C414.751 108.52 414.789 110.516 415.833 112.069C416.576 113.035 417.498 113.847 418.548 114.463C422.462 117.101 426.691 119.786 431.41 119.873C433.365 119.909 435.461 119.404 436.748 117.931C437.303 117.239 437.74 116.46 438.04 115.625C439.247 112.651 439.978 109.506 440.208 106.304C440.382 104.799 440.241 103.274 439.795 101.826C439.222 100.228 438.063 98.913 437.297 97.3976C436.391 95.5957 436.06 93.5594 436.348 91.5634C436.386 91.4228 436.374 91.2734 436.315 91.1406C436.252 91.0695 436.173 91.0139 436.085 90.9782C435.997 90.9426 435.902 90.9277 435.807 90.9349L426.45 90.2613C425.579 90.218 424.711 90.1188 423.853 89.9642C423.348 89.8616 422.016 89.1452 421.535 89.3357C420.645 89.6883 420.411 93.8357 420.229 94.7913Z" fill="black"/>
<path d="M429.178 95.7536C436.759 95.7536 442.905 89.6077 442.905 82.0264C442.905 74.445 436.759 68.2991 429.178 68.2991C421.597 68.2991 415.451 74.445 415.451 82.0264C415.451 89.6077 421.597 95.7536 429.178 95.7536Z" fill="#DB997D"/>
<path d="M422.153 112.772C422.831 113.557 423.649 114.211 424.564 114.699C425.519 115.093 426.544 115.288 427.576 115.272C430.051 115.342 432.733 114.888 434.455 113.109C436.674 110.816 436.601 107.118 438.34 104.442C438.48 104.2 438.671 103.991 438.9 103.829C439.192 103.67 439.522 103.595 439.853 103.61C442.05 103.59 443.964 105.014 445.69 106.372C446.503 106.931 447.201 107.642 447.745 108.465C448.086 109.131 448.32 109.847 448.438 110.587C449.295 114.77 449.572 119.047 449.848 123.309C450 125.662 450.152 128.018 450.141 130.377C450.104 138.148 448.297 145.788 446.501 153.348C446.27 154.323 445.953 155.411 445.067 155.878C444.672 156.056 444.248 156.159 443.816 156.184C438.672 156.788 433.517 157.393 428.338 157.472C426.316 157.503 424.296 157.455 422.277 157.326C421.929 157.321 421.585 157.261 421.256 157.148C420.81 156.933 420.426 156.608 420.143 156.202C417.341 152.672 417.176 147.792 417.194 143.285C417.238 132.267 417.631 121.257 418.375 110.256C418.436 109.348 418.45 108.246 417.796 107.531C419.069 109.419 420.529 111.175 422.153 112.772Z" fill="white"/>
<path d="M419.247 96.9216C418.783 97.7609 415.365 99.8449 414.705 100.54C411.018 104.427 404.289 104.281 400.917 108.444C399.73 109.908 399.114 111.748 398.66 113.578C398.019 116.165 397.677 118.987 398.751 121.427C399.784 123.774 401.96 125.397 403.437 127.494C405.059 129.797 405.788 132.592 406.487 135.32C407.003 137.335 407.523 139.399 407.322 141.469C407.094 143.822 405.955 145.977 405.283 148.244C404.61 150.51 404.494 153.21 406.049 154.991C407.191 156.3 408.982 156.819 410.695 157.111C412.888 157.44 415.099 157.633 417.316 157.687C419.274 157.774 421.431 157.79 422.936 156.536C424.123 155.545 424.64 153.939 424.706 152.394C424.773 150.85 424.452 149.319 424.25 147.786C424.042 146.197 423.962 144.594 423.895 142.993C423.593 135.809 423.552 128.619 423.771 121.426C423.882 119.931 423.808 118.428 423.553 116.95C423.133 115.026 422.093 113.306 421.225 111.538C419.491 108.208 418.705 104.465 418.955 100.719C419.217 96.8684 420.896 93.9351 419.247 96.9216Z" fill="white"/>
<path d="M438.524 97.2139C439.23 97.9397 441.63 98.179 442.528 98.6464C443.373 99.0368 444.255 99.3421 445.161 99.5578C448.437 100.503 451.554 101.934 454.407 103.802C455 104.149 455.524 104.601 455.954 105.137C456.406 105.873 456.698 106.696 456.809 107.553C457.249 109.732 457.691 111.937 457.592 114.158C457.487 116.515 456.777 118.798 456.073 121.05L453.441 129.464C451.476 135.745 449.499 142.087 448.947 148.645C448.641 152.279 448.777 155.937 449.351 159.539C449.406 159.714 449.422 159.898 449.399 160.08C449.376 160.262 449.315 160.437 449.219 160.594C449.045 160.765 448.817 160.87 448.574 160.89C447.304 161.089 446.075 160.441 444.924 159.868C441.406 158.117 437.652 156.889 433.78 156.222C435.293 154.035 436.46 151.628 437.241 149.086C437.684 147.472 438.034 145.834 438.287 144.179L439.511 137.098C440.009 134.51 440.36 131.895 440.561 129.267C440.654 128.281 440.597 127.287 440.391 126.318C440.109 125.395 439.734 124.504 439.273 123.657C437.255 119.46 436.308 114.67 437.102 110.082C437.45 108.073 438.125 106.062 437.843 104.044C437.573 102.103 437.854 100.595 437.356 98.6743C435.312 90.7884 437.196 95.8484 438.524 97.2139Z" fill="white"/>
<path d="M400.881 115.08C399.961 116.989 398.423 118.615 397.899 120.668C397.696 121.628 397.608 122.608 397.639 123.589C397.549 125.067 397.695 126.549 398.073 127.981C398.365 128.886 398.84 129.721 399.183 130.609C399.66 131.849 399.872 133.176 399.807 134.503C399.714 136.342 399.09 138.126 399.041 139.967C398.964 142.861 400.303 145.582 401.609 148.166C401.938 147.352 402.44 146.619 403.082 146.019C403.723 145.42 404.488 144.968 405.322 144.694C406.157 144.421 407.041 144.334 407.913 144.438C408.785 144.542 409.623 144.835 410.37 145.297C410.669 144.93 410.811 144.459 410.765 143.988C410.861 140.63 410.954 137.272 411.044 133.914C411.185 128.721 411.32 123.459 410.126 118.403C409.586 116.12 408.747 113.846 407.208 112.075C406.398 111.143 403.648 108.687 402.318 109.732C401.72 110.201 401.86 111.48 401.765 112.127C401.622 113.151 401.324 114.146 400.881 115.08Z" fill="white"/>
<path d="M457.857 109.579C458.227 110.956 458.385 112.38 458.326 113.804C458.344 116.707 458.306 119.609 458.211 122.511C458.226 124 458.035 125.483 457.645 126.919C457.348 127.854 456.89 128.73 456.583 129.661C455.664 132.451 456.166 135.477 456.245 138.414C456.301 139.364 456.22 140.318 456.004 141.245C455.519 143.065 454.215 144.536 453.305 146.186C452.44 147.753 451.919 149.509 450.886 150.971C449.854 152.432 448.067 153.59 446.335 153.141C445.022 152.801 444.09 151.64 443.445 150.447C442.037 147.825 441.556 144.805 442.079 141.876C442.726 138.311 444.82 135.149 445.575 131.606C446.612 126.741 445.036 121.72 445.083 116.746C445.061 115.966 445.167 115.188 445.396 114.442C445.792 113.306 446.643 112.398 447.428 111.487C448.41 110.348 449.323 109.151 450.16 107.902C450.723 107.063 451.487 104.905 452.484 104.726C454.711 104.325 457.304 107.859 457.857 109.579Z" fill="white"/>
<path d="M389.33 158.076C388.099 157.766 386.83 157.631 385.561 157.675C384.228 157.749 382.926 158.105 381.741 158.721C380.556 159.337 379.516 160.198 378.69 161.247C377.864 162.296 377.271 163.509 376.949 164.805C376.628 166.102 376.587 167.451 376.828 168.764C377.135 170.187 377.638 171.561 378.321 172.846C379.321 174.874 380.52 176.898 382.37 178.198C383.485 178.913 384.685 179.484 385.943 179.899L395.689 183.57C397.123 184.11 398.557 184.651 400.005 185.151C407.279 187.666 414.863 189.173 422.546 189.633C424.884 189.852 427.241 189.732 429.545 189.278C430.102 189.205 430.612 188.93 430.978 188.504C431.164 188.18 431.273 187.818 431.298 187.446L431.898 183.247C432.032 182.663 432.015 182.054 431.847 181.478C431.572 180.772 430.884 180.328 430.227 179.951C423.82 176.271 416.338 174.241 410.945 169.19C409.676 168.001 408.613 166.116 407.071 165.308C405.321 164.393 403.261 163.87 401.453 163.026C397.501 161.181 393.614 159.06 389.33 158.076Z" fill="#2F2E41"/>
<path opacity="0.1" d="M399.056 163.735C402.501 164.815 417.045 172.293 419.538 174.904C419.204 175.025 407.867 168.671 407.526 168.569C404.408 167.712 401.354 166.636 398.388 165.348C397.797 165.075 394.55 163.791 394.697 163.046C394.863 162.204 398.445 163.544 399.056 163.735Z" fill="black"/>
<path d="M442.034 191.81C442.229 191.824 442.423 191.767 442.58 191.649C442.648 191.561 442.699 191.46 442.728 191.352C442.757 191.244 442.765 191.132 442.75 191.021L442.734 185.301C441.09 184.517 439.25 184.266 437.444 184.025L429.018 182.899C429.212 182.925 427.701 186.528 427.932 187.009C428.341 187.857 431.461 188.608 432.342 189.008C435.404 190.4 438.585 191.93 442.034 191.81Z" fill="#DB997D"/>
<path d="M415.595 185.281C414.005 185.535 412.229 185.759 411.199 186.997C409.892 188.568 410.448 190.909 411.072 192.854C411.11 193.105 411.198 193.346 411.33 193.563C411.463 193.779 411.638 193.967 411.844 194.115C412.051 194.262 412.285 194.367 412.533 194.423C412.781 194.479 413.037 194.484 413.287 194.439C414.738 194.531 416.282 194.603 417.549 193.891C418.124 193.512 418.676 193.101 419.205 192.66C420.14 192.038 421.168 191.568 422.25 191.268C424.239 190.643 426.286 190.221 428.361 190.009C429.178 189.972 429.987 189.829 430.768 189.585C431.158 189.459 431.514 189.245 431.808 188.96C432.102 188.674 432.326 188.325 432.463 187.939C432.757 186.899 432.153 185.839 431.573 184.928C430.906 183.734 430.039 182.663 429.011 181.761C427.441 180.541 426.664 181.477 425.083 182.258C422.09 183.735 418.891 184.754 415.595 185.281Z" fill="#DB997D"/>
<path d="M411.438 186.714L401.336 183.729C400.125 183.307 398.859 183.061 397.577 183C396.935 182.974 396.296 183.085 395.7 183.326C395.105 183.566 394.568 183.931 394.125 184.396C393.342 185.316 393.117 186.572 392.922 187.764L392.504 190.314C392.226 191.599 392.147 192.919 392.271 194.229C392.338 194.884 392.553 195.514 392.901 196.073C393.249 196.632 393.72 197.105 394.277 197.454C395.675 198.217 397.388 197.844 398.948 197.525C402.1 196.881 405.305 196.538 408.521 196.499C409.73 196.484 410.998 196.5 412.067 195.933C412.687 195.566 413.208 195.052 413.584 194.437C413.961 193.823 414.181 193.125 414.227 192.406C414.426 190.228 413.7 187.383 411.438 186.714Z" fill="#2F2E41"/>
<path d="M446.004 184.113C447.313 183.883 448.469 183.139 449.724 182.7C451.49 182.081 453.404 182.081 455.275 182.088C455.963 182.025 456.655 182.164 457.265 182.487C458.09 183.036 458.301 184.134 458.441 185.114L459.287 191.028C459.513 192.132 459.536 193.267 459.356 194.379C459.108 195.475 458.36 196.532 457.273 196.814C455.952 197.158 454.657 196.314 453.41 195.76C450.293 194.374 446.669 194.728 443.419 193.693C443.108 193.631 442.814 193.503 442.556 193.319C442.299 193.134 442.083 192.897 441.924 192.624C441.812 192.295 441.773 191.947 441.807 191.602C441.863 189.701 441.462 187.105 442.034 185.288C442.549 183.654 444.542 184.113 446.004 184.113Z" fill="#2F2E41"/>
<path d="M467.379 155.695C469.398 155.189 471.49 155.046 473.559 155.273C475.211 155.455 476.913 155.915 478.119 157.058C479.587 158.45 480.058 160.602 480.098 162.625C480.162 166.653 478.826 170.579 476.318 173.731C475.705 174.529 474.977 175.23 474.157 175.812C473.272 176.365 472.329 176.819 471.345 177.167L449.519 185.775C443.778 188.04 438.015 190.311 432.026 191.804C431.863 191.883 431.685 191.929 431.503 191.938C431.322 191.947 431.14 191.92 430.969 191.858C430.798 191.796 430.641 191.701 430.508 191.577C430.374 191.454 430.267 191.305 430.192 191.139C428.28 188.408 426.675 185.473 425.408 182.389C425.348 182.316 425.307 182.229 425.287 182.136C425.268 182.043 425.271 181.947 425.297 181.856C425.322 181.765 425.37 181.681 425.434 181.612C425.499 181.543 425.58 181.491 425.669 181.459L441.106 172.589C442.238 171.999 443.294 171.272 444.248 170.424C444.916 169.778 445.462 169.017 445.862 168.178C446.182 167.51 446.211 165.933 446.62 165.439C447.02 164.955 448.389 164.916 449.022 164.726C449.913 164.453 450.787 164.123 451.636 163.738C455.089 162.193 458.164 159.948 461.475 158.14C463.331 157.078 465.315 156.257 467.379 155.695Z" fill="#2F2E41"/>
<path opacity="0.1" d="M458.626 162.319C455.974 164.311 452.54 166.142 449.911 168.187C449.014 168.885 434.059 177.293 433.848 178.409C436.3 178.822 451.922 167.894 454.157 166.803C456.392 165.713 458.373 164.175 460.337 162.649C460.837 162.26 462.957 161.09 461.521 160.655C460.712 160.411 459.224 161.921 458.626 162.319Z" fill="black"/>
<path d="M440.379 97.4069H417.098C416.152 97.4069 415.245 97.7826 414.576 98.4515C413.907 99.1203 413.531 100.027 413.531 100.973V102.279H413.278V105.2H413.531V107.244H413.278V108.997H413.531V130.547C413.531 131.493 413.907 132.4 414.576 133.069C415.245 133.738 416.152 134.114 417.098 134.114H440.379C441.325 134.114 442.232 133.738 442.901 133.069C443.57 132.4 443.946 131.493 443.946 130.547V100.973C443.946 100.027 443.57 99.1203 442.901 98.4515C442.232 97.7826 441.325 97.4069 440.379 97.4069Z" fill="#D0CDE1"/>
<path d="M444.083 69.8594L432.275 63.6739L415.968 66.2044L412.594 81.1054L420.993 80.782L423.339 75.3078V80.6921L427.214 80.5431L429.463 71.8271L430.869 81.1054L444.645 80.824L444.083 69.8594Z" fill="#2F2E41"/>
<path d="M403.968 153.766C404.503 154.674 405.262 155.429 406.173 155.958C406.77 156.231 407.422 156.364 408.079 156.346C408.736 156.329 409.379 156.161 409.962 155.857C411.124 155.233 412.076 154.279 412.696 153.115C413.979 150.849 414.245 148.137 414.085 145.538C413.925 142.939 413.37 140.379 413.124 137.786C412.946 135.902 412.931 134.006 412.917 132.113C412.872 131.714 412.956 131.313 413.155 130.965C413.498 130.624 413.942 130.402 414.421 130.333C417.011 129.563 418.73 127.136 419.963 124.731C420.786 123.126 421.501 121.371 421.343 119.574C421.184 117.776 419.892 115.966 418.097 115.783C416.618 115.631 415.251 116.571 414.184 117.607C411.491 120.237 409.761 123.695 409.271 127.427C409.036 129.254 409.103 131.131 408.606 132.905C407.545 136.693 404.225 139.015 402.57 142.423C400.747 146.179 401.753 150.443 403.968 153.766Z" fill="#DB997D"/>
<path d="M452.831 139.295C452.453 140.173 451.904 140.967 451.214 141.63C450.525 142.292 449.709 142.81 448.817 143.152C447.707 143.598 446.483 143.673 445.327 143.366C444.754 143.207 444.225 142.918 443.781 142.521C443.338 142.124 442.992 141.631 442.77 141.079C442.594 140.523 442.497 139.945 442.482 139.361C442.316 136.807 442.381 134.175 443.308 131.789C443.666 130.869 444.149 129.997 444.431 129.051C444.709 127.958 444.851 126.835 444.854 125.708L445.159 118.739C445.209 118.233 445.174 117.722 445.055 117.227C444.751 116.219 443.809 115.564 442.944 114.962C440.855 113.51 438.792 111.815 437.78 109.481C437.432 108.779 437.307 107.986 437.423 107.211C437.708 105.827 439.105 104.931 440.485 104.629C441.388 104.432 442.322 104.419 443.23 104.592C444.139 104.765 445.002 105.12 445.77 105.636C446.537 106.152 447.192 106.818 447.695 107.593C448.198 108.369 448.539 109.238 448.698 110.149C448.834 110.936 448.832 111.739 448.912 112.533C449.082 114.218 449.617 115.842 449.951 117.502C450.775 121.591 450.348 125.818 451.163 129.906C451.845 133.324 454.415 135.555 452.831 139.295Z" fill="#DB997D"/>
<path opacity="0.8" d="M429.049 113.086C430.662 113.086 431.97 111.778 431.97 110.165C431.97 108.552 430.662 107.244 429.049 107.244C427.436 107.244 426.128 108.552 426.128 110.165C426.128 111.778 427.436 113.086 429.049 113.086Z" fill="#3F3D56"/>
<path d="M158.957 387.637C125.31 387.652 92.6796 376.103 66.5346 354.923C40.3896 333.743 22.3189 304.22 15.3509 271.302C8.3829 238.384 12.9411 204.072 28.2615 174.115C43.5819 144.157 68.7336 120.376 99.5014 106.757C130.269 93.1376 164.783 90.5074 197.26 99.3073C229.736 108.107 258.201 127.802 277.884 155.092C297.567 182.381 307.272 215.607 305.372 249.201C303.473 282.795 290.085 314.715 267.451 339.612L298.09 373.958L282.801 380.444C259.148 390.477 236.002 380.714 223.01 372.923C203.045 382.602 181.146 387.632 158.957 387.637ZM158.957 118.316C91.2683 118.316 36.199 173.386 36.199 241.075C36.199 308.764 91.2683 363.833 158.957 363.833C179.584 363.835 199.879 358.644 217.972 348.738L224.517 345.142L230.603 349.472C235.038 352.627 243.785 358.06 253.828 360.098L234.548 338.485L242.999 330.543C255.275 319.108 265.052 305.256 271.715 289.859C278.379 274.461 281.783 257.852 281.716 241.075C281.716 173.386 226.646 118.316 158.957 118.316Z" fill="#3F3D56"/>
<g filter="url(#filter2_ii_2_1843)">
<path d="M293.619 241.075C293.619 166.704 233.33 106.414 158.959 106.414C84.5882 106.414 24.2988 166.704 24.2988 241.075C24.2988 315.445 84.5883 375.735 158.959 375.735C181.593 375.768 203.868 370.069 223.705 359.17C233.013 365.793 255.722 379.003 278.155 369.487L251.151 339.217C264.575 326.639 275.271 311.438 282.576 294.556C289.882 277.673 293.64 259.47 293.619 241.075Z" fill="url(#paint1_linear_2_1843)"/>
<path d="M293.619 241.075C293.619 166.704 233.33 106.414 158.959 106.414C84.5882 106.414 24.2988 166.704 24.2988 241.075C24.2988 315.445 84.5883 375.735 158.959 375.735C181.593 375.768 203.868 370.069 223.705 359.17C233.013 365.793 255.722 379.003 278.155 369.487L251.151 339.217C264.575 326.639 275.271 311.438 282.576 294.556C289.882 277.673 293.64 259.47 293.619 241.075Z" fill="black" fill-opacity="0.2"/>
</g>
<path opacity="0.1" d="M48.1024 240.394C48.1024 170.035 102.066 112.29 170.861 106.264C166.938 105.92 162.971 105.734 158.959 105.734C84.5882 105.734 24.2988 166.024 24.2988 240.394C24.2988 314.765 84.5882 375.055 158.959 375.055C162.965 375.055 166.925 374.866 170.842 374.523C102.056 368.488 48.1024 310.747 48.1024 240.394Z" fill="black"/>
<path d="M12.565 236.369C19.5044 236.369 25.13 230.744 25.13 223.804C25.13 216.865 19.5044 211.239 12.565 211.239C5.62554 211.239 0 216.865 0 223.804C0 230.744 5.62554 236.369 12.565 236.369Z" fill="#2F2E41"/>
<path d="M58.1135 261.106L51.7847 254.954L39.0762 258.901L40.2968 273.616L66.4272 272.403L58.3998 261.495L58.1135 261.106Z" fill="#FBBEBE"/>
<path d="M44.2692 260.979C55.4884 260.979 64.5834 251.884 64.5834 240.665C64.5834 229.446 55.4884 220.351 44.2692 220.351C33.05 220.351 23.9551 229.446 23.9551 240.665C23.9551 251.884 33.05 260.979 44.2692 260.979Z" fill="#FBBEBE"/>
<path d="M170.381 287.179C170.381 287.179 195.337 330.067 201.276 336.506C204.101 339.674 207.11 342.673 210.288 345.487C210.288 345.487 207.496 354.749 203.049 354.418C200.514 354.266 198.028 353.653 195.713 352.61C195.713 352.61 193.728 347.465 190.266 345.209C186.804 342.952 158.519 315.126 159.18 306.232C159.841 297.338 170.381 287.179 170.381 287.179Z" fill="#2F2E41"/>
<path d="M81.5073 348.382C81.5073 348.382 108.116 369.035 144.279 349.628L147.395 347.335C147.395 347.335 142.136 359.166 141.648 362.374C141.082 366.093 127.39 387.88 125.155 388.924C122.921 389.968 122.428 390.931 122.428 390.931L131.911 401.368L135.417 398.788C135.417 398.788 149.087 379.419 153.086 375.876C157.084 372.333 176.135 335.794 176.135 335.794C176.135 335.794 183.418 322.026 165.241 320.991C147.063 319.955 138.699 324.91 138.699 324.91L106.439 330.034L81.5073 348.382Z" fill="#2F2E41"/>
<path d="M210.595 343.458L224.054 352.77C224.054 352.77 241.225 358.15 230.648 361.73C220.071 365.31 192.199 366.605 191.566 361.666C190.934 356.726 192.666 348.952 194.056 349.377C195.447 349.802 205.098 352.308 210.595 343.458Z" fill="#2F2E41"/>
<path d="M136.603 395.589L139.094 409.268C139.094 409.268 146.177 422.815 137.672 418.612C129.168 414.408 111.646 398.442 114.233 395.095C116.821 391.748 122.531 388.118 123.111 389.209C123.691 390.299 127.984 397.602 136.603 395.589Z" fill="#2F2E41"/>
<path d="M110.94 334.525C110.94 334.525 92.8515 355.643 81.8699 350.513C70.8883 345.383 25.9605 285.965 31.0905 274.984C36.2205 264.002 37.9405 266.34 37.9405 266.34L61.1382 268.485L54.4636 257.783C54.4636 257.783 57.5801 255.49 60.5497 258.709C63.5194 261.928 75.442 269.969 79.5954 281.325C83.7489 292.681 95.943 292.114 95.943 292.114L110.94 334.525Z" fill="white"/>
<path d="M183.986 290.979L152.632 324.262L124.543 274.671L151.246 242.409L183.986 290.979Z" fill="#3F3D56"/>
<path d="M181.619 290.619L153.3 319.867L127.638 274.796L151.172 245.166L181.619 290.619Z" fill="white"/>
<path d="M151.093 322.991L152.629 324.262L151.644 326.188L107.8 339.237L107.386 337.735L109.38 335.672L151.093 322.991Z" fill="#B3B3B3"/>
<path d="M153.021 323.976L107.62 338.171L79.9434 285.875L124.544 274.671L153.021 323.976Z" fill="#D0CDE1"/>
<path d="M149.602 316.883L147.654 318.316L126.036 280.779L128.27 279.736L149.602 316.883Z" fill="#3F3D56"/>
<path d="M145.133 318.97L125.927 324.697L104.125 286.094L123.125 281.72L145.133 318.97Z" fill="#3F3D56"/>
<path d="M91.0247 290.329L95.0011 289.204C95.0011 289.204 117.177 286.696 117.501 293.664C117.824 300.632 92.0246 297.4 92.0246 297.4L88.5845 292.725L91.0247 290.329Z" fill="#FBBEBE"/>
<path d="M110.477 321.655L116.012 319.383C116.012 319.383 132.719 311.893 127.926 307.012C123.134 302.132 108.353 310.607 108.353 310.607L105.523 313.29L110.477 321.655Z" fill="#FBBEBE"/>
<path d="M105.547 310.872C105.547 310.872 114.559 319.854 112.509 321.964C110.458 324.073 76.8317 351.822 68.4961 342.944C60.1604 334.065 19.5479 289.487 35.3509 285.664C51.1538 281.841 55.3292 290.779 55.3292 290.779L76.1911 326.471L105.547 310.872Z" fill="white"/>
<path d="M78.5589 283.589L93.3623 288.608L93.1206 299.296L77.4644 297.606L78.5589 283.589Z" fill="white"/>
<path opacity="0.2" d="M91.9024 316.408L75.9528 325.744L57.73 297.718L75.3202 320.804L91.9024 316.408Z" fill="black"/>
<path d="M35.3524 258.96C48.7086 258.96 59.5359 248.132 59.5359 234.776C59.5359 221.42 48.7086 210.593 35.3524 210.593C21.9963 210.593 11.1689 221.42 11.1689 234.776C11.1689 248.132 21.9963 258.96 35.3524 258.96Z" fill="#2F2E41"/>
<path d="M166.021 293.089L149.088 268.318L156.266 259.433L173.861 284.918L166.021 293.089Z" fill="url(#paint2_linear_2_1843)"/>
<path d="M166.021 293.089L149.088 268.318L156.266 259.433L173.861 284.918L166.021 293.089Z" fill="black" fill-opacity="0.2"/>
<path d="M165.546 303.048L139.767 265.571L141.038 264.035L166.697 301.601L165.546 303.048Z" fill="#E6E6E6"/>
<path d="M162.225 306.694L136.445 269.216L137.717 267.68L163.375 305.247L162.225 306.694Z" fill="#E6E6E6"/>
<path d="M159.391 309.377L133.611 271.9L134.883 270.363L160.542 307.93L159.391 309.377Z" fill="#E6E6E6"/>
<path d="M46.0625 218.631H53.5436C57.3315 218.631 60.9642 220.135 63.6426 222.814C66.3211 225.492 67.8258 229.125 67.8258 232.913H46.0625V218.631Z" fill="#2F2E41"/>
<path d="M492.453 196.622L493.32 196.227C493.115 195.776 492.9 195.327 492.689 194.877L496.5 192.954L488.548 187.747L488.013 197.237L491.838 195.307C492.043 195.745 492.253 196.182 492.453 196.622Z" fill="#3F3D56"/>
<path d="M504.957 243.19L504.007 243.258C504.042 243.752 504.088 244.248 504.129 244.743L499.887 245.219L505.529 252.869L509.334 244.158L505.076 244.637C505.036 244.154 504.992 243.672 504.957 243.19Z" fill="#3F3D56"/>
<mask id="path-72-inside-1_2_1843" fill="white">
<path d="M504.921 245.007C503.797 227.695 499.681 210.709 492.757 194.803L491.738 195.246C498.611 211.035 502.697 227.895 503.813 245.079L504.921 245.007Z"/>
</mask>
<path d="M504.921 245.007C503.797 227.695 499.681 210.709 492.757 194.803L491.738 195.246C498.611 211.035 502.697 227.895 503.813 245.079L504.921 245.007Z" stroke="#3F3D56" stroke-width="2.70523" stroke-linecap="round" stroke-linejoin="round" stroke-dasharray="10.14 10.14" mask="url(#path-72-inside-1_2_1843)"/>
<path d="M401.088 396.626L401.38 397.533C401.852 397.381 402.322 397.219 402.793 397.061L404.268 401.067L410.351 393.762L400.984 392.146L402.464 396.166C402.005 396.32 401.547 396.478 401.088 396.626Z" fill="#3F3D56"/>
<path d="M236.738 347.015L237.516 346.464C237.229 346.059 236.933 345.659 236.641 345.257L240.021 342.65L231.229 339.036L232.494 348.457L235.886 345.84C236.17 346.231 236.459 346.621 236.738 347.015Z" fill="#3F3D56"/>
<mask id="path-75-inside-2_2_1843" fill="white">
<path d="M235.604 345.741C254.682 370.786 281.149 389.201 311.264 398.384C341.379 407.567 373.618 407.052 403.425 396.913L403.067 395.861C373.481 405.926 341.48 406.436 311.588 397.322C281.695 388.207 255.424 369.928 236.487 345.068L235.604 345.741Z"/>
</mask>
<path d="M235.604 345.741C254.682 370.786 281.149 389.201 311.264 398.384C341.379 407.567 373.618 407.052 403.425 396.913L403.067 395.861C373.481 405.926 341.48 406.436 311.588 397.322C281.695 388.207 255.424 369.928 236.487 345.068L235.604 345.741Z" stroke="#3F3D56" stroke-width="2.70523" stroke-linecap="round" stroke-linejoin="round" stroke-dasharray="10.14 10.14" mask="url(#path-75-inside-2_2_1843)"/>
<path d="M208.364 227.958L207.428 227.777C207.334 228.263 207.249 228.754 207.16 229.243L202.94 228.602L206.403 237.454L212.339 230.029L208.103 229.386C208.19 228.91 208.272 228.432 208.364 227.958Z" fill="#3F3D56"/>
<path d="M356.487 104.546L356.447 105.498C356.942 105.518 357.44 105.529 357.937 105.544L357.934 109.812L366.168 105.064L357.94 100.306L357.937 104.59C357.454 104.575 356.969 104.566 356.487 104.546Z" fill="#3F3D56"/>
<mask id="path-78-inside-3_2_1843" fill="white">
<path d="M357.953 104.6C322.086 103.91 287.157 116.082 259.487 138.915C231.817 161.747 213.234 193.73 207.103 229.076L208.197 229.266C214.283 194.181 232.728 162.435 260.194 139.771C287.659 117.108 322.33 105.025 357.932 105.71L357.953 104.6Z"/>
</mask>
<path d="M357.953 104.6C322.086 103.91 287.157 116.082 259.487 138.915C231.817 161.747 213.234 193.73 207.103 229.076L208.197 229.266C214.283 194.181 232.728 162.435 260.194 139.771C287.659 117.108 322.33 105.025 357.932 105.71L357.953 104.6Z" stroke="#3F3D56" stroke-width="2.70523" stroke-linecap="round" stroke-linejoin="round" stroke-dasharray="10.14 10.14" mask="url(#path-78-inside-3_2_1843)"/>
</g>
<defs>
<filter id="filter0_ii_2_1843" x="371.555" y="262.463" width="215.817" height="215.817" filterUnits="userSpaceOnUse" color-interpolation-filters="sRGB">
<feFlood flood-opacity="0" result="BackgroundImageFix"/>
<feBlend mode="normal" in="SourceGraphic" in2="BackgroundImageFix" result="shape"/>
<feColorMatrix in="SourceAlpha" type="matrix" values="0 0 0 0 0 0 0 0 0 0 0 0 0 0 0 0 0 0 127 0" result="hardAlpha"/>
<feOffset dx="2.02892" dy="2.70523"/>
<feGaussianBlur stdDeviation="1.35262"/>
<feComposite in2="hardAlpha" operator="arithmetic" k2="-1" k3="1"/>
<feColorMatrix type="matrix" values="0 0 0 0 0 0 0 0 0 0 0 0 0 0 0 0 0 0 0.25 0"/>
<feBlend mode="normal" in2="shape" result="effect1_innerShadow_2_1843"/>
<feColorMatrix in="SourceAlpha" type="matrix" values="0 0 0 0 0 0 0 0 0 0 0 0 0 0 0 0 0 0 127 0" result="hardAlpha"/>
<feOffset dx="5.41046" dy="5.41046"/>
<feGaussianBlur stdDeviation="3.38154"/>
<feComposite in2="hardAlpha" operator="arithmetic" k2="-1" k3="1"/>
<feColorMatrix type="matrix" values="0 0 0 0 0 0 0 0 0 0 0 0 0 0 0 0 0 0 0.25 0"/>
<feBlend mode="normal" in2="effect1_innerShadow_2_1843" result="effect2_innerShadow_2_1843"/>
</filter>
<filter id="filter1_ii_2_1843" x="332.738" y="7.84347" width="190.08" height="190.081" filterUnits="userSpaceOnUse" color-interpolation-filters="sRGB">
<feFlood flood-opacity="0" result="BackgroundImageFix"/>
<feBlend mode="normal" in="SourceGraphic" in2="BackgroundImageFix" result="shape"/>
<feColorMatrix in="SourceAlpha" type="matrix" values="0 0 0 0 0 0 0 0 0 0 0 0 0 0 0 0 0 0 127 0" result="hardAlpha"/>
<feOffset dx="2.02892" dy="2.70523"/>
<feGaussianBlur stdDeviation="1.35262"/>
<feComposite in2="hardAlpha" operator="arithmetic" k2="-1" k3="1"/>
<feColorMatrix type="matrix" values="0 0 0 0 0 0 0 0 0 0 0 0 0 0 0 0 0 0 0.25 0"/>
<feBlend mode="normal" in2="shape" result="effect1_innerShadow_2_1843"/>
<feColorMatrix in="SourceAlpha" type="matrix" values="0 0 0 0 0 0 0 0 0 0 0 0 0 0 0 0 0 0 127 0" result="hardAlpha"/>
<feOffset dx="5.41046" dy="5.41046"/>
<feGaussianBlur stdDeviation="3.38154"/>
<feComposite in2="hardAlpha" operator="arithmetic" k2="-1" k3="1"/>
<feColorMatrix type="matrix" values="0 0 0 0 0 0 0 0 0 0 0 0 0 0 0 0 0 0 0.25 0"/>
<feBlend mode="normal" in2="effect1_innerShadow_2_1843" result="effect2_innerShadow_2_1843"/>
</filter>
<filter id="filter2_ii_2_1843" x="24.2988" y="106.414" width="274.731" height="274.731" filterUnits="userSpaceOnUse" color-interpolation-filters="sRGB">
<feFlood flood-opacity="0" result="BackgroundImageFix"/>
<feBlend mode="normal" in="SourceGraphic" in2="BackgroundImageFix" result="shape"/>
<feColorMatrix in="SourceAlpha" type="matrix" values="0 0 0 0 0 0 0 0 0 0 0 0 0 0 0 0 0 0 127 0" result="hardAlpha"/>
<feOffset dx="2.02892" dy="2.70523"/>
<feGaussianBlur stdDeviation="1.35262"/>
<feComposite in2="hardAlpha" operator="arithmetic" k2="-1" k3="1"/>
<feColorMatrix type="matrix" values="0 0 0 0 0 0 0 0 0 0 0 0 0 0 0 0 0 0 0.25 0"/>
<feBlend mode="normal" in2="shape" result="effect1_innerShadow_2_1843"/>
<feColorMatrix in="SourceAlpha" type="matrix" values="0 0 0 0 0 0 0 0 0 0 0 0 0 0 0 0 0 0 127 0" result="hardAlpha"/>
<feOffset dx="5.41046" dy="5.41046"/>
<feGaussianBlur stdDeviation="3.38154"/>
<feComposite in2="hardAlpha" operator="arithmetic" k2="-1" k3="1"/>
<feColorMatrix type="matrix" values="0 0 0 0 0 0 0 0 0 0 0 0 0 0 0 0 0 0 0.25 0"/>
<feBlend mode="normal" in2="effect1_innerShadow_2_1843" result="effect2_innerShadow_2_1843"/>
</filter>
<linearGradient id="paint0_linear_2_1843" x1="335.495" y1="17.6664" x2="526.071" y2="27.6817" gradientUnits="userSpaceOnUse">
<stop stop-color="#00A3FF"/>
<stop offset="1" stop-color="#31E3CB"/>
<stop offset="1" stop-color="#31E3CB"/>
</linearGradient>
<linearGradient id="paint1_linear_2_1843" x1="28.3185" y1="120.74" x2="306.252" y2="135.346" gradientUnits="userSpaceOnUse">
<stop stop-color="#00A3FF"/>
<stop offset="1" stop-color="#31E3CB"/>
<stop offset="1" stop-color="#31E3CB"/>
</linearGradient>
<linearGradient id="paint2_linear_2_1843" x1="149.458" y1="261.223" x2="175.055" y2="262.213" gradientUnits="userSpaceOnUse">
<stop stop-color="#00A3FF"/>
<stop offset="1" stop-color="#31E3CB"/>
<stop offset="1" stop-color="#31E3CB"/>
</linearGradient>
</defs>
</svg>
